<svg width="150" height="175" viewbox="0 0 150 175">
  <rect class="brew-color__mug-inside" x="10" y="50" width="80" height="100" fill="yellow" />
  <path class="brew-color__mug-top"
        d="M 10 60
           C 5 30, 35 20, 25 50
           C 25 20, 55 20, 45 50
           C 45 20, 75 20, 65 50
           C 65 20, 95 20, 90 50
           C 90 80, 10 80, 10 50" stroke-width="4" stroke="gray" fill="white" />
  <path class="brew-color__mug-outline" d="M 10 150 a 40 20 0 0 0 80 0 M 10 50 L 10 150 M 90 150 L 90 50" stroke="gray" stroke-width="4" stroke-linecap="round" fill="yellow" />
  <path class="brew-color__mug-handle" d="M 90 60 C 150 40, 150 160, 90 140" stroke="gray" stroke-width="6" fill="none" />
</svg>